<svg width="24" height="26" viewBox="0 0 24 26" fill="none" xmlns="http://www.w3.org/2000/svg">
<path d="M14.7937 21.75C15.8749 21.75 16.4462 23.03 15.7249 23.835C15.256 24.3588 14.6819 24.7779 14.04 25.0648C13.3981 25.3517 12.703 25.5 11.9999 25.5C11.2969 25.5 10.6017 25.3517 9.95987 25.0648C9.31801 24.7779 8.74388 24.3588 8.27493 23.835C7.58494 23.065 8.07744 21.8612 9.06743 21.7588L9.20493 21.7512L14.7937 21.75ZM11.9999 0.5C13.6974 0.5 15.1324 1.62875 15.5937 3.17625L15.6512 3.39L15.6612 3.44375C17.0394 4.22089 18.2138 5.31358 19.0881 6.63225C19.9624 7.95091 20.5118 9.45801 20.6912 11.03L20.7262 11.3888L20.7499 11.75V15.4137L20.7762 15.5838C20.9473 16.5048 21.457 17.3284 22.2049 17.8925L22.4137 18.0387L22.6162 18.1625C23.6912 18.7712 23.3162 20.37 22.1449 20.4925L21.9999 20.5H1.99993C0.714934 20.5 0.266184 18.795 1.38368 18.1625C1.85997 17.893 2.27149 17.5224 2.58936 17.077C2.90722 16.6315 3.12373 16.1218 3.22368 15.5838L3.24993 15.405L3.25118 11.6925C3.3274 10.0598 3.80263 8.47076 4.63529 7.06433C5.46795 5.65791 6.63264 4.47701 8.02743 3.625L8.33743 3.4425L8.34993 3.38875C8.52626 2.64104 8.92797 1.96552 9.50074 1.45356C10.0735 0.941597 10.7897 0.617901 11.5524 0.52625L11.7799 0.505L11.9999 0.5Z" fill="#FFD88A"/>
</svg>
