<svg width="150" height="50" viewBox="0 0 150 50" fill="none" xmlns="http://www.w3.org/2000/svg">
<g filter="url(#filter0_d_597_4309)">
<rect width="150" height="45" rx="15" fill="#F87D65" shape-rendering="crispEdges"/>
<path d="M50.4266 16.68C50.4266 17.76 50.7466 18.74 51.3866 19.62C52.0399 20.4867 52.9666 21.1133 54.1666 21.5L53.0666 23.2C52.2266 22.8933 51.4932 22.4533 50.8666 21.88C50.2532 21.2933 49.7732 20.6133 49.4266 19.84C49.0666 20.7467 48.5599 21.5267 47.9066 22.18C47.2532 22.8333 46.4732 23.32 45.5666 23.64L44.4866 21.96C45.7532 21.52 46.7132 20.8067 47.3666 19.82C48.0199 18.82 48.3466 17.7 48.3466 16.46V14.9H50.4266V16.68ZM57.3666 18H59.5866V19.8H57.3666V23.96H55.3266V14H57.3666V18ZM52.1266 24.28C53.7932 24.28 55.1066 24.56 56.0666 25.12C57.0399 25.68 57.5266 26.46 57.5266 27.46C57.5266 28.4733 57.0466 29.2533 56.0866 29.8C55.1266 30.36 53.8066 30.64 52.1266 30.64C50.4332 30.64 49.0999 30.36 48.1266 29.8C47.1532 29.2533 46.6666 28.4733 46.6666 27.46C46.6666 26.46 47.1532 25.68 48.1266 25.12C49.1132 24.56 50.4466 24.28 52.1266 24.28ZM52.1266 26C51.0332 26 50.1932 26.1267 49.6066 26.38C49.0199 26.6333 48.7266 26.9933 48.7266 27.46C48.7266 27.9533 49.0199 28.3267 49.6066 28.58C50.1932 28.8333 51.0332 28.96 52.1266 28.96C53.2199 28.96 54.0599 28.8333 54.6466 28.58C55.2332 28.3267 55.5266 27.9533 55.5266 27.46C55.5266 26.9933 55.2332 26.6333 54.6466 26.38C54.0599 26.1267 53.2199 26 52.1266 26ZM65.0633 18.34C65.0633 19.7933 65.3099 21.14 65.8033 22.38C66.2966 23.6067 67.0566 24.5533 68.0833 25.22L66.9633 26.88C65.6166 26.0533 64.6566 24.6533 64.0833 22.68C63.7766 23.7067 63.3633 24.6133 62.8433 25.4C62.3366 26.1867 61.7166 26.8 60.9833 27.24L59.7233 25.66C60.8433 24.9533 61.6766 23.9533 62.2233 22.66C62.7833 21.3533 63.0633 19.9467 63.0633 18.44V15.46H65.0633V18.34ZM73.8833 30.68H71.9233V14H73.8833V30.68ZM70.5433 29.86H68.6033V21.46H66.3833V19.72H68.6033V14.3H70.5433V29.86ZM90.04 28.68H75.34V26.9H81.64V23.76H76.94V15.08H79V17.78H86.32V15.08H88.38V23.76H83.68V26.9H90.04V28.68ZM86.32 22.02V19.52H79V22.02H86.32ZM104.117 30.68H102.037V14H104.117V30.68ZM99.3167 15.78C99.3301 18.4333 98.7567 20.7667 97.5967 22.78C96.4501 24.78 94.5301 26.4333 91.8367 27.74L90.7567 26.04C92.8234 25.0267 94.3701 23.8267 95.3967 22.44C96.4234 21.04 97.0301 19.3867 97.2167 17.48H91.5967V15.78H99.3167Z" fill="white"/>
</g>
<defs>
<filter id="filter0_d_597_4309" x="0" y="0" width="150" height="50" filterUnits="userSpaceOnUse" color-interpolation-filters="sRGB">
<feFlood flood-opacity="0" result="BackgroundImageFix"/>
<feColorMatrix in="SourceAlpha" type="matrix" values="0 0 0 0 0 0 0 0 0 0 0 0 0 0 0 0 0 0 127 0" result="hardAlpha"/>
<feOffset dy="5"/>
<feComposite in2="hardAlpha" operator="out"/>
<feColorMatrix type="matrix" values="0 0 0 0 0.882118 0 0 0 0 0.319409 0 0 0 0 0.114787 0 0 0 1 0"/>
<feBlend mode="normal" in2="BackgroundImageFix" result="effect1_dropShadow_597_4309"/>
<feBlend mode="normal" in="SourceGraphic" in2="effect1_dropShadow_597_4309" result="shape"/>
</filter>
</defs>
</svg>
