<svg width="106" height="39" viewBox="0 0 106 39" fill="none" xmlns="http://www.w3.org/2000/svg">
<rect width="106" height="39" rx="10" fill="#F9F9F9"/>
<path d="M48.744 15.804H46.04C46.0507 16.412 46.3173 16.956 46.84 17.436C47.3733 17.9053 48.0933 18.2413 49 18.444L48.424 19.612C47.72 19.452 47.1067 19.1907 46.584 18.828C46.0613 18.4653 45.656 18.0333 45.368 17.532C45.08 18.0867 44.6693 18.5613 44.136 18.956C43.6133 19.3507 42.9787 19.6333 42.232 19.804L41.64 18.636C42.568 18.4227 43.2933 18.06 43.816 17.548C44.3493 17.036 44.6213 16.4547 44.632 15.804H41.944V14.636H44.632V13.196H46.04V14.636H48.744V15.804ZM51.704 26.412H50.296V13.18H51.704V26.412ZM41.112 20.524C42.7547 20.524 44.248 20.5027 45.592 20.46C46.936 20.4067 48.2213 20.3 49.448 20.14L49.544 21.26C48.4667 21.4413 47.304 21.5747 46.056 21.66V26.012H44.648V21.724C43.5813 21.7667 42.4613 21.788 41.288 21.788L41.112 20.524ZM64.904 24.764H53.272V23.532H58.344V20.412H59.736V23.532H64.904V24.764ZM59.768 15.02C59.768 15.7027 59.976 16.3587 60.392 16.988C60.8187 17.6173 61.3893 18.156 62.104 18.604C62.8187 19.0413 63.592 19.3293 64.424 19.468L63.816 20.732C62.76 20.5187 61.8 20.0973 60.936 19.468C60.0827 18.8387 59.448 18.076 59.032 17.18C58.616 18.0653 57.9813 18.828 57.128 19.468C56.2747 20.0973 55.3253 20.5187 54.28 20.732L53.656 19.468C54.488 19.3293 55.256 19.036 55.96 18.588C56.664 18.14 57.224 17.6013 57.64 16.972C58.0667 16.3427 58.28 15.692 58.28 15.02V14.044H59.768V15.02Z" fill="#4C4C4C"/>
</svg>
