<svg width="25" height="26" viewBox="0 0 25 26" fill="none" xmlns="http://www.w3.org/2000/svg">
<path d="M4.98472 25.8574C4.29939 25.8574 3.6911 25.6312 3.15985 25.1788C2.6286 24.7264 2.30342 24.155 2.18431 23.4645L0.021972 10.3931C-0.0489244 9.9645 0.0517486 9.57783 0.323991 9.23307C0.596233 8.8883 0.956386 8.71545 1.40445 8.71449H23.595C24.044 8.71449 24.4047 8.88735 24.6769 9.23307C24.9491 9.57878 25.0493 9.96545 24.9775 10.3931L22.8152 23.4645C22.697 24.155 22.3723 24.7264 21.841 25.1788C21.3098 25.6312 20.701 25.8574 20.0147 25.8574H4.98472ZM9.66388 17.2859H15.3356C15.7373 17.2859 16.0743 17.1488 16.3466 16.8745C16.6188 16.6002 16.7545 16.2612 16.7535 15.8574C16.7526 15.4535 16.6165 15.1145 16.3452 14.8402C16.0739 14.5659 15.7373 14.4288 15.3356 14.4288H9.66388C9.26213 14.4288 8.92561 14.5659 8.65432 14.8402C8.38302 15.1145 8.2469 15.4535 8.24595 15.8574C8.24501 16.2612 8.38113 16.6007 8.65432 16.8759C8.9275 17.1512 9.26402 17.2878 9.66388 17.2859ZM3.99217 7.28592C3.59042 7.28592 3.2539 7.14878 2.9826 6.8745C2.71131 6.60021 2.57519 6.26116 2.57424 5.85735C2.5733 5.45354 2.70942 5.1145 2.9826 4.84021C3.25579 4.56592 3.59231 4.42878 3.99217 4.42878H21.0073C21.409 4.42878 21.746 4.56592 22.0183 4.84021C22.2905 5.1145 22.4262 5.45354 22.4252 5.85735C22.4243 6.26116 22.2882 6.60069 22.0169 6.87592C21.7456 7.15116 21.409 7.28783 21.0073 7.28592H3.99217ZM6.82802 3.00021C6.42628 3.00021 6.08976 2.86307 5.81846 2.58878C5.54716 2.31449 5.41104 1.97545 5.4101 1.57164C5.40915 1.16783 5.54527 0.828781 5.81846 0.554495C6.09165 0.280209 6.42817 0.143066 6.82802 0.143066H18.1714C18.5732 0.143066 18.9102 0.280209 19.1824 0.554495C19.4547 0.828781 19.5903 1.16783 19.5894 1.57164C19.5884 1.97545 19.4523 2.31497 19.181 2.59021C18.9097 2.86545 18.5732 3.00211 18.1714 3.00021H6.82802Z" fill="#E4E4E4"/>
</svg>
