<svg width="46" height="51" viewBox="0 0 46 51" fill="none" xmlns="http://www.w3.org/2000/svg">
<path d="M46 29.6162C46 41.9308 36.0875 50.3056 23.6627 50.3056C11.2379 50.3056 1.82007 41.9308 1.82007 29.6162C1.82007 17.3017 19.2551 15.5667 23.6627 3.20981C28.0703 -9.14703 46 17.3017 46 29.6162Z" fill="#F87D65"/>
<path d="M15.3435 26.5872C14.5314 33.8149 10.7674 39.4428 6.93652 39.1574C3.10562 38.8721 0.65845 32.7815 1.47061 25.5538C2.28277 18.326 10.0072 4.89997 12.3149 5.07187C14.6226 5.24377 16.1557 19.3594 15.3435 26.5872Z" fill="#F87D65"/>
<ellipse cx="15.6875" cy="33.5538" rx="6.68748" ry="8.55376" fill="white"/>
<ellipse cx="31.2397" cy="33.5538" rx="6.68748" ry="8.55376" fill="white"/>
<ellipse cx="15.6874" cy="32.6206" rx="5.4433" ry="6.99853" fill="#C27878"/>
<ellipse cx="31.2397" cy="32.6206" rx="5.4433" ry="6.99853" fill="#C27878"/>
</svg>
