<svg width="40" height="40" viewBox="0 0 40 40" fill="none" xmlns="http://www.w3.org/2000/svg">
<g clip-path="url(#clip0_3502_7577)">
<g clip-path="url(#clip1_3502_7577)">
<path d="M15.0039 17.1426C15.0071 17.3513 15.0149 17.5611 15.0312 17.7715V17.7725C15.2703 20.8278 16.8361 23.631 19.1455 25.4355C17.3854 25.9254 15.7181 26.6368 14.2236 27.5615H14.2227C13.0796 28.2694 12.0588 29.0865 11.1748 30H2.30762C1.97553 30.004 1.64647 29.9394 1.34473 29.8105C1.04285 29.6816 0.775452 29.4917 0.5625 29.2549C0.0938691 28.7347 -0.0947974 28.024 0.0449219 27.3057C0.653559 24.1704 2.55357 21.5364 5.53906 19.6875C8.19136 18.0463 11.5509 17.1426 15 17.1426C15.0013 17.1426 15.0026 17.1426 15.0039 17.1426ZM15 0C17.1633 1.80306e-08 19.1231 0.774871 20.5264 2.18164C21.947 3.60596 22.6393 5.52331 22.4756 7.5791C22.4699 7.65008 22.4606 7.72051 22.4531 7.79102C20.8189 8.17337 19.3083 8.93071 18.0605 10.0527L17.6934 10.4014C16.4096 11.6867 15.5722 13.2724 15.209 14.9941C15.1395 14.9964 15.0698 15 15 15C11.1975 15 7.84362 11.67 7.52344 7.57715C7.36204 5.50279 8.05004 3.58147 9.46191 2.16797C10.8587 0.769935 12.8252 0 15 0Z" fill="#D1D1D1"/>
<path d="M30.5268 12.1817C29.1234 10.7748 27.1634 10 25 10C22.8251 10 20.8585 10.7701 19.4617 12.1683C18.0497 13.5819 17.3617 15.5031 17.5233 17.5776C17.8435 21.6705 21.1975 24.9999 25 24.9999C28.8025 24.9999 32.1508 21.6711 32.476 17.579C32.6397 15.5232 31.9474 13.606 30.5268 12.1817ZM37.692 39.9998H12.308C11.9758 40.0038 11.6468 39.939 11.3449 39.8101C11.043 39.6812 10.7758 39.4914 10.5629 39.2545C10.0942 38.7342 9.90522 38.0237 10.0451 37.3052C10.6538 34.1699 12.5532 31.5363 15.5387 29.6874C18.1911 28.0461 21.5508 27.1428 25 27.1428C28.4492 27.1428 31.8089 28.0468 34.4613 29.6874C37.4468 31.5356 39.3462 34.1693 39.9549 37.3045C40.0948 38.023 39.9058 38.7335 39.4371 39.2538C39.2242 39.4908 38.9571 39.6807 38.6552 39.8098C38.3533 39.9388 38.0243 40.0038 37.692 39.9998Z" fill="#D1D1D1"/>
</g>
</g>
<defs>
<clipPath id="clip0_3502_7577">
<rect width="40" height="40" fill="white"/>
</clipPath>
<clipPath id="clip1_3502_7577">
<rect width="40" height="40" fill="white"/>
</clipPath>
</defs>
</svg>
