<svg width="40" height="40" viewBox="0 0 40 40" fill="none" xmlns="http://www.w3.org/2000/svg">
<g clip-path="url(#clip0_3502_7566)">
<path fill-rule="evenodd" clip-rule="evenodd" d="M23.2663 35.5738L23.2427 35.578L23.0903 35.6519L23.0473 35.6604L23.0173 35.6519L22.8648 35.578C22.8419 35.571 22.8247 35.5745 22.8133 35.5886L22.8047 35.6097L22.7682 36.5133L22.7789 36.5555L22.8004 36.5829L23.0237 36.7392L23.0559 36.7476L23.0817 36.7392L23.305 36.5829L23.3308 36.5492L23.3394 36.5133L23.3028 35.6118C23.2971 35.5893 23.285 35.5766 23.2663 35.5738ZM23.8354 35.3352L23.8074 35.3395L23.4102 35.5358L23.3887 35.5569L23.3823 35.5801L23.4209 36.4879L23.4317 36.5133L23.4489 36.528L23.8804 36.7244C23.9076 36.7314 23.9284 36.7258 23.9427 36.7075L23.9513 36.6779L23.8783 35.3817C23.8711 35.3563 23.8568 35.3409 23.8354 35.3352ZM22.3001 35.3395C22.2906 35.3338 22.2793 35.332 22.2685 35.3343C22.2577 35.3367 22.2483 35.3431 22.2421 35.3521L22.2293 35.3817L22.1562 36.6779C22.1577 36.7033 22.1698 36.7202 22.1928 36.7286L22.225 36.7244L22.6565 36.528L22.678 36.5112L22.6866 36.4879L22.7231 35.5801L22.7167 35.5548L22.6952 35.5337L22.3001 35.3395Z" fill="#BCBCBC"/>
<path d="M0 34C0 37.4 2.6 40 6 40H34C37.4 40 40 37.4 40 34V18H0V34ZM34 4H30V2C30 0.8 29.2 0 28 0C26.8 0 26 0.8 26 2V4H14V2C14 0.8 13.2 0 12 0C10.8 0 10 0.8 10 2V4H6C2.6 4 0 6.6 0 10V14H40V10C40 6.6 37.4 4 34 4Z" fill="#D1D1D1"/>
</g>
<defs>
<clipPath id="clip0_3502_7566">
<rect width="40" height="40" fill="white"/>
</clipPath>
</defs>
</svg>
