<svg width="30" height="30" viewBox="0 0 30 30" fill="none" xmlns="http://www.w3.org/2000/svg">
<path d="M0 28.0501V11.1011C0 10.6019 0.122857 10.1293 0.368571 9.68346C0.614286 9.23757 0.952857 8.87033 1.38429 8.58174L12.9236 0.629835C13.5279 0.209946 14.2179 0 14.9936 0C15.7693 0 16.4636 0.209946 17.0764 0.629835L28.6157 8.57979C29.0486 8.86838 29.3871 9.23627 29.6314 9.68346C29.8771 10.1293 30 10.6019 30 11.1011V28.0501C30 28.5726 29.7864 29.0283 29.3593 29.417C28.9321 29.8057 28.4314 30 27.8571 30H20.6057C20.1143 30 19.7029 29.8492 19.3714 29.5476C19.04 29.2447 18.8743 28.8703 18.8743 28.4244V19.1251C18.8743 18.6792 18.7086 18.3055 18.3771 18.0039C18.0443 17.701 17.6329 17.5496 17.1429 17.5496H12.8571C12.3671 17.5496 11.9564 17.701 11.625 18.0039C11.2921 18.3055 11.1257 18.6792 11.1257 19.1251V28.4264C11.1257 28.8723 10.96 29.246 10.6286 29.5476C10.2971 29.8492 9.88643 30 9.39643 30H2.14286C1.56857 30 1.06786 29.8057 0.640714 29.417C0.213571 29.0283 0 28.5726 0 28.0501Z" fill="#F87D65"/>
</svg>
