<svg width="27" height="28" viewBox="0 0 27 28" fill="none" xmlns="http://www.w3.org/2000/svg">
<path fill-rule="evenodd" clip-rule="evenodd" d="M24.685 2.25192C23.8637 1.43093 22.75 0.969727 21.5887 0.969727C20.4275 0.969727 19.3138 1.43093 18.4925 2.25192L17.4604 3.28543L24.6864 10.5112L25.717 9.47919C26.1238 9.07253 26.4464 8.58973 26.6666 8.05836C26.8867 7.52699 27 6.95747 27 6.38231C27 5.80715 26.8867 5.23763 26.6666 4.70626C26.4464 4.17489 26.1238 3.69209 25.717 3.28543L24.685 2.25192ZM22.6208 12.5753L15.3948 5.34953L2.12523 18.6202C1.83485 18.9106 1.632 19.2769 1.53985 19.6771L0.0377128 26.1803C-0.0182573 26.4217 -0.0118373 26.6734 0.056368 26.9117C0.124573 27.15 0.252318 27.3669 0.427566 27.5422C0.602813 27.7174 0.819793 27.8452 1.05806 27.9134C1.29633 27.9816 1.54804 27.988 1.78947 27.932L8.29434 26.4314C8.69404 26.339 9.05974 26.1362 9.34977 25.846L22.6208 12.5753Z" fill="#D1D1D1"/>
</svg>
