<svg width="40" height="40" viewBox="0 0 40 40" fill="none" xmlns="http://www.w3.org/2000/svg">
<g clip-path="url(#clip0_3502_7568)">
<path d="M27.369 2.90891C25.4979 1.03303 22.8845 0 20 0C17.1001 0 14.478 1.02678 12.6156 2.89105C10.7329 4.77586 9.81567 7.33746 10.031 10.1035C10.458 15.5606 14.9299 19.9999 20 19.9999C25.0701 19.9999 29.5344 15.5615 29.968 10.1053C30.1863 7.36424 29.2632 4.80801 27.369 2.90891ZM36.9226 39.9998H3.07739C2.63439 40.0051 2.19567 39.9187 1.79316 39.7468C1.39065 39.5749 1.03447 39.3218 0.750529 39.006C0.125546 38.3123 -0.12637 37.365 0.0601637 36.4069C0.87168 32.2266 3.4043 28.715 7.38496 26.2498C10.9214 24.0615 15.4011 22.857 20 22.857C24.5989 22.857 29.0786 24.0624 32.615 26.2498C36.5957 28.7141 39.1283 32.2257 39.9398 36.406C40.1264 37.3641 39.8745 38.3114 39.2495 39.0051C38.9656 39.3211 38.6095 39.5743 38.207 39.7464C37.8045 39.9184 37.3657 40.005 36.9226 39.9998Z" fill="#D1D1D1"/>
</g>
<defs>
<clipPath id="clip0_3502_7568">
<rect width="40" height="40" fill="white"/>
</clipPath>
</defs>
</svg>
