<svg width="40" height="40" viewBox="0 0 40 40" fill="none" xmlns="http://www.w3.org/2000/svg">
<g clip-path="url(#clip0_3502_7565)">
<path fill-rule="evenodd" clip-rule="evenodd" d="M36.188 1.82774C35.0173 0.65744 33.4297 0 31.7743 0C30.119 0 28.5314 0.65744 27.3607 1.82774L25.8895 3.30099L36.19 13.6013L37.6592 12.1301C38.239 11.5504 38.6989 10.8622 39.0127 10.1047C39.3265 9.34726 39.488 8.53541 39.488 7.71554C39.488 6.89566 39.3265 6.08382 39.0127 5.32636C38.6989 4.56891 38.239 3.88068 37.6592 3.30099L36.188 1.82774ZM33.2455 16.5436L22.945 6.24333L4.02947 25.1604C3.61554 25.5744 3.32638 26.0965 3.19502 26.667L1.05376 35.9372C0.973975 36.2814 0.983126 36.6402 1.08035 36.9798C1.17758 37.3194 1.35967 37.6287 1.60949 37.8785C1.8593 38.1283 2.1686 38.3104 2.50825 38.4076C2.84789 38.5049 3.2067 38.514 3.55086 38.4342L12.8234 36.2951C13.3932 36.1634 13.9145 35.8743 14.3279 35.4607L33.2455 16.5436Z" fill="#D1D1D1"/>
</g>
<defs>
<clipPath id="clip0_3502_7565">
<rect width="40" height="40" fill="white"/>
</clipPath>
</defs>
</svg>
