<svg width="37" height="24" viewBox="0 0 37 24" fill="none" xmlns="http://www.w3.org/2000/svg">
<path d="M25.5848 11.6544C28.5032 11.6544 31.0139 9.19848 31.0139 6.0003C31.0139 2.84072 28.49 0.5 25.5848 0.5C22.6803 0.5 20.1558 2.89179 20.1558 6.02583C20.1558 9.19848 22.6665 11.6544 25.5848 11.6544ZM9.96225 11.9489C12.4868 11.9489 14.6864 9.79938 14.6864 7.02339C14.6864 4.27355 12.473 2.2392 9.96225 2.2392C7.43832 2.2392 5.21171 4.32462 5.22559 7.04955C5.22559 9.79938 7.42379 11.9489 9.96225 11.9489ZM2.38914 23.5H12.7042C11.2929 21.5684 13.0167 17.6796 15.9351 15.5562C14.4287 14.6097 12.4868 13.9061 9.94904 13.9061C3.82752 13.9055 0 18.1647 0 21.7085C0 22.8605 0.678554 23.5 2.38914 23.5ZM17.0478 23.5H34.1087C36.2395 23.5 37 22.924 37 21.7982C37 18.4979 32.6155 13.9441 25.5716 13.9441C18.541 13.9441 14.1565 18.4979 14.1565 21.7988C14.1565 22.924 14.9163 23.5 17.0478 23.5Z" fill="#D1D1D1"/>
</svg>
