<svg width="40" height="40" viewBox="0 0 40 40" fill="none" xmlns="http://www.w3.org/2000/svg">
<g clip-path="url(#clip0_3502_7564)">
<path d="M0 37.4001V14.8014C0 14.1358 0.163809 13.5058 0.491428 12.9113C0.819047 12.3168 1.27048 11.8271 1.84571 11.4423L17.2314 0.83978C18.0371 0.279928 18.9571 0 19.9914 0C21.0257 0 21.9514 0.279928 22.7686 0.83978L38.1543 11.4397C38.7314 11.8245 39.1829 12.315 39.5086 12.9113C39.8362 13.5058 40 14.1358 40 14.8014V37.4001C40 38.0969 39.7152 38.7044 39.1457 39.2226C38.5762 39.7409 37.9086 40 37.1429 40H27.4743C26.819 40 26.2705 39.7989 25.8286 39.3968C25.3867 38.993 25.1657 38.4938 25.1657 37.8993V25.5002C25.1657 24.9056 24.9448 24.4073 24.5029 24.0052C24.0591 23.6013 23.5105 23.3994 22.8571 23.3994H17.1429C16.4895 23.3994 15.9419 23.6013 15.5 24.0052C15.0562 24.4073 14.8343 24.9056 14.8343 25.5002V37.9019C14.8343 38.4964 14.6133 38.9947 14.1714 39.3968C13.7295 39.7989 13.1819 40 12.5286 40H2.85714C2.09143 40 1.42381 39.7409 0.854285 39.2226C0.284761 38.7044 0 38.0969 0 37.4001Z" fill="#F87D65"/>
</g>
<defs>
<clipPath id="clip0_3502_7564">
<rect width="40" height="40" fill="white"/>
</clipPath>
</defs>
</svg>
